# xmcd
#
# Track frame offsets:
#	150
#	16188
#	30126
#	38138
#	52789
#	68667
#	73546
#	88141
#	101443
#	123079
#	138387
#	158775
#	174621
#	195013
#	213175
#	237499
#	256255
#	264100
#	276242
#	297118
#
# Disc length: 4162 seconds
#
# Revision: 1
# Processed by: cddbd v1.5.1PL0 Copyright (c) Steve Scherf et al.
# Submitted via: audiograbber 1.83.01
#
DISCID=00104014
DTITLE=Steve Earle,Towns Van Zandt,Guy Clarke - Together At The BlueBird Cafe
DYEAR=1900
DGENRE=
TTITLE0=Baby Took A Limo To Memphis
TTITLE1=My Old Friend the Blues
TTITLE2=Introduction to Katie Belle
TTITLE3=Katie Belle
TTITLE4=The Cape
TTITLE5=Introduction to Valentine´s Da
TTITLE6=Valentine's Day
TTITLE7=Ain't Leavin Your Love
TTITLE8=Randall Knife
TTITLE9=Tom Ames Prayer
TTITLE10=The Interfaith Dental Clinic
TTITLE11=A Song For
TTITLE12=Dublin Blues
TTITLE13=I Ain't Ever Satisfied
TTITLE14=Pancho And Lefty
TTITLE15=Immigrant Eyes
TTITLE16=Sirocco's Pizza
TTITLE17=Mercenary Song
TTITLE18=Tecumseh Valley
TTITLE19=Copperhead Road
EXTD=
EXTT0=
EXTT1=
EXTT2=
EXTT3=
EXTT4=
EXTT5=
EXTT6=
EXTT7=
EXTT8=
EXTT9=
EXTT10=
EXTT11=
EXTT12=
EXTT13=
EXTT14=
EXTT15=
EXTT16=
EXTT17=
EXTT18=
EXTT19=
PLAYORDER=
